<svg xmlns="http://www.w3.org/2000/svg" xmlns:xlink="http://www.w3.org/1999/xlink" width="200" height="200" viewBox="0 0 200 200">
  <defs>
    <clipPath id="clip-path">
      <rect id="Rectangle_3" data-name="Rectangle 3" width="200" height="200" transform="translate(1125 245)" fill="#fff"/>
    </clipPath>
  </defs>
  <g id="bonus" transform="translate(-1125 -245)" clip-path="url(#clip-path)">
    <path id="profit" d="M283.27,118.627,251.244,78.594a4.013,4.013,0,0,0-5.8-.368c-.184.092-.276.276-.368.368l-32.027,40.033a3.969,3.969,0,0,0,.644,5.614,4.132,4.132,0,0,0,2.485.92h11.964v8.007H95.988a11.94,11.94,0,0,0-11.964,11.964v72.06a11.94,11.94,0,0,0,11.964,11.964h19.971v19.971a11.94,11.94,0,0,0,11.964,11.964H264.128a3.928,3.928,0,0,0,3.957-3.957V125.162h11.964a3.949,3.949,0,0,0,3.957-4.049,3.467,3.467,0,0,0-.736-2.485Zm-167.22,58.532v27.977h-.644a12.154,12.154,0,0,0-7.362-7.362V164.367A12.154,12.154,0,0,0,115.406,157H204.86a12.154,12.154,0,0,0,7.362,7.362v.644H128.2a12.2,12.2,0,0,0-12.148,12.148Zm112,60H147.341a12.154,12.154,0,0,0-7.362-7.362V196.393a12.154,12.154,0,0,0,7.362-7.362h80.711Zm0-56.047H144.028a3.928,3.928,0,0,0-3.957,3.957,3.928,3.928,0,0,1-3.957,3.957,3.928,3.928,0,0,0-3.957,3.957v40.033a3.928,3.928,0,0,0,3.957,3.957,3.928,3.928,0,0,1,3.957,3.957,3.928,3.928,0,0,0,3.957,3.957h84.024V252.9H128.015a3.928,3.928,0,0,1-3.957-3.957v-72.06a3.928,3.928,0,0,1,3.957-3.957H228.052Zm0-16.013h-8.007v-3.957a3.928,3.928,0,0,0-3.957-3.957,3.928,3.928,0,0,1-3.957-3.957,3.928,3.928,0,0,0-3.957-3.957H112a3.928,3.928,0,0,0-3.957,3.957,3.928,3.928,0,0,1-3.957,3.957,3.928,3.928,0,0,0-3.957,3.957v40.033a3.928,3.928,0,0,0,3.957,3.957,3.928,3.928,0,0,1,3.957,3.957A3.928,3.928,0,0,0,112,213.051h3.957v8.007H95.988a3.928,3.928,0,0,1-3.957-3.957V145.04a3.928,3.928,0,0,1,3.957-3.957H224.095a3.928,3.928,0,0,1,3.957,3.957Zm36.076-47.948a3.928,3.928,0,0,0-3.957,3.957V253.176h-24.02V121.112a3.928,3.928,0,0,0-3.957-3.957h-7.639l23.652-29.634,23.652,29.634Z" transform="translate(1040.976 175.875)" fill="#fff"/>
  </g>
</svg>
