<?xml version="1.0" encoding="UTF-8"?>
<!DOCTYPE svg PUBLIC "-//W3C//DTD SVG 1.1//EN" "http://www.w3.org/Graphics/SVG/1.1/DTD/svg11.dtd">
<svg xmlns="http://www.w3.org/2000/svg" version="1.1" width="225px" height="225px" style="shape-rendering:geometricPrecision; text-rendering:geometricPrecision; image-rendering:optimizeQuality; fill-rule:evenodd; clip-rule:evenodd" xmlns:xlink="http://www.w3.org/1999/xlink">
<g><path style="opacity:1" fill="#000000" d="M 105.5,-0.5 C 109.167,-0.5 112.833,-0.5 116.5,-0.5C 125.066,0.592618 133.733,1.92595 142.5,3.5C 190.888,20.5562 218.221,54.5562 224.5,105.5C 224.5,109.167 224.5,112.833 224.5,116.5C 218.739,171.332 189.406,206.665 136.5,222.5C 134.5,223.167 132.5,223.833 130.5,224.5C 118.5,224.5 106.5,224.5 94.5,224.5C 94.1583,223.662 93.4916,223.328 92.5,223.5C 36.8703,209.206 5.87033,173.539 -0.5,116.5C -0.5,112.833 -0.5,109.167 -0.5,105.5C 5.06671,58.6079 29.4,25.6079 72.5,6.5C 83.3894,3.02286 94.3894,0.689526 105.5,-0.5 Z"/></g>
<g><path style="opacity:0.729" fill="#878787" d="M 116.5,-0.5 C 121.5,-0.5 126.5,-0.5 131.5,-0.5C 135.019,0.632154 138.686,1.63215 142.5,2.5C 142.5,2.83333 142.5,3.16667 142.5,3.5C 133.733,1.92595 125.066,0.592618 116.5,-0.5 Z"/></g>
<g><path style="opacity:0.565" fill="#7a7a7a" d="M 92.5,-0.5 C 96.8333,-0.5 101.167,-0.5 105.5,-0.5C 94.3894,0.689526 83.3894,3.02286 72.5,6.5C 72.5,6.16667 72.5,5.83333 72.5,5.5C 79.1631,3.17189 85.8298,1.17189 92.5,-0.5 Z"/></g>
<g><path style="opacity:0.608" fill="#535353" d="M 72.5,5.5 C 72.5,5.83333 72.5,6.16667 72.5,6.5C 29.4,25.6079 5.06671,58.6079 -0.5,105.5C -0.5,100.833 -0.5,96.1667 -0.5,91.5C 8.63946,50.0207 32.9728,21.354 72.5,5.5 Z"/></g>
<g><path style="opacity:0.282" fill="#5b5b5b" d="M 142.5,2.5 C 186.989,16.9846 214.323,46.9846 224.5,92.5C 224.5,96.8333 224.5,101.167 224.5,105.5C 218.221,54.5562 190.888,20.5562 142.5,3.5C 142.5,3.16667 142.5,2.83333 142.5,2.5 Z"/></g>
<g><path style="opacity:0.999" fill="#f7f7f7" d="M 64.5,68.5 C 74.5056,68.3335 84.5056,68.5002 94.5,69C 101.34,78.0015 108.34,86.8349 115.5,95.5C 123.287,86.543 131.287,77.7097 139.5,69C 144.5,68.3333 149.5,68.3333 154.5,69C 143.647,81.0185 132.98,93.1852 122.5,105.5C 134.59,122.013 146.924,138.346 159.5,154.5C 149.5,155.833 139.5,155.833 129.5,154.5C 122.191,144.69 114.691,135.024 107,125.5C 98.6861,135.315 90.1861,144.982 81.5,154.5C 76.5,155.833 71.5,155.833 66.5,154.5C 77.6474,141.518 88.9808,128.685 100.5,116C 87.8756,100.555 75.8756,84.7219 64.5,68.5 Z"/></g>
<g><path style="opacity:1" fill="#080808" d="M 82.5,77.5 C 86.0071,76.9935 89.1737,77.6602 92,79.5C 108.712,101.756 125.545,123.923 142.5,146C 138.409,147.227 134.909,146.394 132,143.5C 115.259,121.604 98.7589,99.6045 82.5,77.5 Z"/></g>
<g><path style="opacity:0.216" fill="#484848" d="M 224.5,116.5 C 224.5,121.5 224.5,126.5 224.5,131.5C 217.408,166.101 198.742,192.601 168.5,211C 158.493,216.724 147.826,220.557 136.5,222.5C 189.406,206.665 218.739,171.332 224.5,116.5 Z"/></g>
<g><path style="opacity:0.531" fill="#5f5f5f" d="M -0.5,116.5 C 5.87033,173.539 36.8703,209.206 92.5,223.5C 51.144,215.727 22.3107,192.394 6,153.5C 3.2817,146.193 1.11504,138.859 -0.5,131.5C -0.5,126.5 -0.5,121.5 -0.5,116.5 Z"/></g>
</svg>
