<svg xmlns="http://www.w3.org/2000/svg" xmlns:xlink="http://www.w3.org/1999/xlink" width="200" height="200" viewBox="0 0 200 200">
  <defs>
    <clipPath id="clip-path">
      <rect id="Rectangle_2" data-name="Rectangle 2" width="200" height="200" transform="translate(833 245)" fill="#fff"/>
    </clipPath>
  </defs>
  <g id="profit" transform="translate(-833 -245)" clip-path="url(#clip-path)">
    <g id="bonus" transform="translate(765.045 177.003)">
      <path id="Path_3" data-name="Path 3" d="M256.027,227.971H79.966a12.012,12.012,0,0,0,0,24.024H255.943a12.012,12.012,0,0,0,.084-24.024Zm0,16.044H79.966a4.032,4.032,0,1,1,0-8.064H255.943a4.032,4.032,0,0,1,.084,8.064Z" fill="#fff"/>
      <path id="Path_4" data-name="Path 4" d="M89.878,219.992H150.1a12.009,12.009,0,0,0,12.012-12.012,12.82,12.82,0,0,0-.252-2.52L153.3,165.477a11.971,11.971,0,0,0-11.76-9.492H98.446a12.11,12.11,0,0,0-11.76,9.492L78.118,205.46a12.051,12.051,0,0,0,9.24,14.28,12.822,12.822,0,0,0,2.52.252Zm4.7-52.835a4.046,4.046,0,0,1,3.948-3.192h43.091a4.117,4.117,0,0,1,3.948,3.192l8.568,39.983a4.086,4.086,0,0,1-3.108,4.788,2.857,2.857,0,0,1-.84.084H89.878a3.962,3.962,0,0,1-3.948-4.032,2.858,2.858,0,0,1,.084-.84Z" fill="#fff"/>
      <path id="Path_5" data-name="Path 5" d="M137.925,148.005h60.227a12.009,12.009,0,0,0,12.012-12.012,12.82,12.82,0,0,0-.252-2.52L201.344,93.49A11.971,11.971,0,0,0,189.584,84H146.493a12.11,12.11,0,0,0-11.76,9.492l-8.568,39.983a12.051,12.051,0,0,0,9.24,14.28,12.82,12.82,0,0,0,2.52.252Zm4.62-52.835a4.046,4.046,0,0,1,3.948-3.192h43.091a4.117,4.117,0,0,1,3.948,3.192l8.568,39.983a4.086,4.086,0,0,1-3.108,4.788,2.858,2.858,0,0,1-.84.084H137.925a4.033,4.033,0,0,1-4.032-4.032,2.858,2.858,0,0,1,.084-.84Z" fill="#fff"/>
      <path id="Path_6" data-name="Path 6" d="M182.7,165.477l-8.568,39.983a12.051,12.051,0,0,0,9.24,14.28,12.82,12.82,0,0,0,2.52.252h60.227a12.009,12.009,0,0,0,12.012-12.012,12.82,12.82,0,0,0-.252-2.52l-8.652-39.983a11.971,11.971,0,0,0-11.76-9.492H194.372a12.088,12.088,0,0,0-11.676,9.492Zm58.715,1.68,8.568,39.983a4.086,4.086,0,0,1-3.108,4.788,2.857,2.857,0,0,1-.84.084H185.8a4.033,4.033,0,0,1-4.032-4.032,2.858,2.858,0,0,1,.084-.84l8.568-39.983a4.046,4.046,0,0,1,3.948-3.192h43.091A3.978,3.978,0,0,1,241.411,167.157Z" fill="#fff"/>
      <path id="Path_7" data-name="Path 7" d="M98.7,191.768a3.979,3.979,0,0,0,5.04-2.52l2.184-6.552a4.066,4.066,0,0,1,3.78-2.772h6.216a4.032,4.032,0,1,0,0-8.064H109.7a11.9,11.9,0,0,0-11.34,8.232l-2.184,6.552A4.106,4.106,0,0,0,98.7,191.768Z" fill="#fff"/>
      <path id="Path_8" data-name="Path 8" d="M192.188,186.728a3.984,3.984,0,1,0,7.56,2.52l2.184-6.552a4.184,4.184,0,0,1,3.78-2.772h6.216a4.032,4.032,0,0,0,0-8.064H205.8a11.9,11.9,0,0,0-11.34,8.232Z" fill="#fff"/>
      <path id="Path_9" data-name="Path 9" d="M146.745,119.782a3.979,3.979,0,0,0,5.04-2.52l2.184-6.552a4.066,4.066,0,0,1,3.78-2.772h6.216A4.033,4.033,0,0,0,168,103.906a3.98,3.98,0,0,0-4.032-4.032h-6.216a11.9,11.9,0,0,0-11.34,8.232l-2.184,6.552A4.036,4.036,0,0,0,146.745,119.782Z" fill="#fff"/>
    </g>
  </g>
</svg>
