<?xml version="1.0" encoding="UTF-8"?>
<svg xmlns="http://www.w3.org/2000/svg" xmlns:xlink="http://www.w3.org/1999/xlink" width="200px" height="170px" viewBox="0 0 200 170" version="1.1">
<g id="surface1">
<path style=" stroke:none;fill-rule:nonzero;fill:rgb(100%,100%,100%);fill-opacity:1;" d="M 100 85 C 91.390625 85 83.75 89.683594 81.027344 96.625 C 78.304688 103.566406 81.113281 111.210938 88 115.601562 L 88 129.199219 C 88 134.832031 93.371094 139.398438 100 139.398438 C 106.628906 139.398438 112 134.832031 112 129.199219 L 112 115.601562 C 118.886719 111.210938 121.695312 103.566406 118.972656 96.625 C 116.25 89.683594 108.609375 85 100 85 Z M 106 110.839844 C 104.757812 111.457031 103.992188 112.589844 104 113.816406 L 104 129.199219 C 104 131.078125 102.210938 132.601562 100 132.601562 C 97.789062 132.601562 96 131.078125 96 129.199219 L 96 113.730469 C 95.980469 112.511719 95.226562 111.386719 94 110.753906 C 88.257812 107.9375 86.285156 101.695312 89.597656 96.816406 C 92.914062 91.933594 100.257812 90.257812 106 93.074219 C 111.742188 95.890625 113.714844 102.132812 110.398438 107.015625 C 109.335938 108.585938 107.820312 109.898438 106 110.839844 Z M 106 110.839844 "/>
<path style=" stroke:none;fill-rule:nonzero;fill:rgb(100%,100%,100%);fill-opacity:1;" d="M 160 68 L 136 68 L 136 30.601562 C 136 13.699219 119.882812 0 100 0 C 80.117188 0 64 13.699219 64 30.601562 L 64 68 L 40 68 C 33.378906 68.015625 28.019531 72.574219 28 78.199219 L 28 159.800781 C 28.019531 165.425781 33.378906 169.984375 40 170 L 160 170 C 166.621094 169.984375 171.980469 165.425781 172 159.800781 L 172 78.199219 C 171.980469 72.574219 166.621094 68.015625 160 68 Z M 72 30.601562 C 72 17.457031 84.535156 6.800781 100 6.800781 C 115.464844 6.800781 128 17.457031 128 30.601562 L 128 68 L 120 68 L 120 30.601562 C 120 21.210938 111.046875 13.601562 100 13.601562 C 88.953125 13.601562 80 21.210938 80 30.601562 L 80 68 L 72 68 Z M 112 68 L 88 68 L 88 30.601562 C 88 24.964844 93.371094 20.398438 100 20.398438 C 106.628906 20.398438 112 24.964844 112 30.601562 Z M 36 78.199219 C 36.007812 76.324219 37.792969 74.804688 40 74.800781 L 160 74.800781 C 162.207031 74.804688 163.992188 76.324219 164 78.199219 L 164 149.601562 L 36 149.601562 Z M 164 159.800781 C 163.992188 161.675781 162.207031 163.195312 160 163.199219 L 40 163.199219 C 37.792969 163.195312 36.007812 161.675781 36 159.800781 L 36 156.398438 L 164 156.398438 Z M 164 159.800781 "/>
</g>
</svg>
